<svg width="628" height="683" viewBox="0 0 628 683" fill="none" xmlns="http://www.w3.org/2000/svg">
<path d="M139.576 435.28C41.8222 491.723 41.8222 583.232 139.576 639.689C237.331 696.146 395.858 696.131 493.613 639.689C591.367 583.247 591.382 491.723 493.613 435.28C395.844 378.838 237.345 378.838 139.576 435.28Z" fill="#F5F5F5"/>
<path d="M319.776 642.433C389.297 642.433 445.655 609.898 445.655 569.763C445.655 529.628 389.297 497.093 319.776 497.093C250.255 497.093 193.897 529.628 193.897 569.763C193.897 609.898 250.255 642.433 319.776 642.433Z" fill="#E0E0E0"/>
<path d="M496.431 78.6187C496.431 72.2699 489.459 67.8495 481.597 67.1078C472.311 66.2326 465.725 70.3712 465.503 77.6842C459.436 75.1922 453.028 76.7942 453.517 83.4694C451.93 81.6448 446.1 81.7041 443.905 82.2085C442.755 82.528 441.687 83.0907 440.774 83.8584C439.86 84.6261 439.122 85.581 438.609 86.6586C438.107 87.7209 437.916 88.9041 438.06 90.0704C434.515 88.9133 426.475 88.2013 424.458 91.4499C420.883 97.2351 435.197 97.3834 438.075 95.6627C438.698 100.113 454.081 100.899 457.804 96.7455C460.771 99.7123 464.894 100.335 469.404 100.602C477.014 101.047 481.686 98.4662 487.62 95.4402C494.087 100.914 505.257 101.018 511.072 94.743C512.555 96.2264 516.634 96.5824 519.972 95.7962C522.123 95.2918 522.627 94.3128 522.627 94.3128C523.894 94.855 525.218 95.2531 526.573 95.4995C530.786 96.3895 538.648 95.4995 535.355 91.6427C534.227 90.3522 530.118 89.5363 528.383 89.9369C526.543 86.3174 519.141 82.876 514.914 85.9466C514.736 81.4965 510.731 78.1292 505.094 77.254C503.151 77.0464 498.582 76.7942 496.431 78.6187Z" fill="#F5F5F5"/>
<path d="M574.961 151.378C575.05 143.116 566.061 137.256 555.84 136.144C543.78 134.839 535.073 140.119 534.717 149.628C526.855 146.275 518.504 148.248 519.008 156.941C516.991 154.553 509.292 154.508 506.518 155.131C505.011 155.538 503.609 156.266 502.408 157.264C501.208 158.263 500.236 159.508 499.561 160.916C498.881 162.294 498.613 163.84 498.79 165.366C494.206 163.794 483.733 162.726 481.063 166.924C476.302 174.341 494.933 174.86 498.716 172.635C499.428 178.568 519.483 179.725 524.363 174.4C528.101 178.257 533.53 179.177 539.404 179.607C549.298 180.334 555.039 179.607 562.812 175.72C567.514 179.8 573.329 180.838 579.307 180.912C588.934 181.046 594.393 175.735 593.992 175.468C596.81 177.269 600.09 178.213 603.434 178.187C606.778 178.16 610.042 177.165 612.831 175.32C613.193 175.013 613.627 174.803 614.092 174.712C614.471 174.71 614.845 174.791 615.19 174.949C617.277 175.679 619.477 176.03 621.687 175.987C623.541 175.987 627.101 175.171 627.546 172.902C627.947 170.929 625.203 169.045 623.808 168.155C621.511 166.881 618.851 166.416 616.258 166.835C613.929 162.088 604.391 157.49 598.799 161.406C598.65 155.695 593.503 151.156 586.16 149.924C583.713 149.494 577.809 149.079 574.961 151.378Z" fill="#F5F5F5"/>
<path d="M87.7029 125.197C87.7029 117.557 79.3218 112.247 69.9024 111.342C58.7178 110.289 50.7817 115.273 50.5147 124.084C43.2166 121.117 35.503 123.001 36.0815 131.041C34.1828 128.846 27.0626 128.905 24.5112 129.558C23.1118 129.945 21.8129 130.63 20.704 131.568C19.5952 132.505 18.7027 133.671 18.0882 134.987C17.4752 136.269 17.2435 137.7 17.4207 139.111C13.1634 137.627 3.47703 136.856 1.10363 140.757C-3.21298 147.729 14.0238 147.937 17.5097 145.83C18.2366 151.245 36.7936 152.135 41.2437 147.151C44.7593 150.666 49.7879 151.452 55.217 151.779C62.8218 152.505 70.4685 150.917 77.1561 147.225C84.929 153.826 98.3683 154.76 105.34 147.225C107.12 148.916 111.541 149.821 115.472 148.871C117.384 148.296 119.178 147.382 120.767 146.172C122.758 146.945 124.863 147.386 126.997 147.477C133.791 147.477 139.309 144.199 134.503 141.069C132.768 139.956 128.199 138.532 126.107 139.007C123.882 134.646 114.982 130.522 109.879 134.201C109.686 128.92 104.851 124.796 98.0123 123.817C95.7724 123.342 90.2988 123.12 87.7029 125.197Z" fill="#F5F5F5"/>
<path d="M209.74 454.92C238.161 421.663 325.309 409.841 389.421 443.395C389.421 443.395 369.173 383.259 364.945 330.347C360.717 277.435 359.308 211.232 359.308 211.232L266.212 204.705L209.74 454.92Z" fill="#263238"/>
<path d="M384.792 523.111C379.793 510.473 371.754 493.073 371.754 493.073C370.531 492.605 369.375 491.982 368.312 491.218C364.767 488.43 355.585 454.787 349.028 438.158C338.645 411.606 326.526 396.505 317.699 387.012C321.868 367.149 330.427 325.867 330.427 325.867L318.486 303.424C318.486 303.424 279.399 282.404 269.787 266.532C269.787 266.532 262.37 306.85 260.53 336.444C257.178 388.54 263.794 395.927 273.05 410.612C277.5 417.614 296.087 443.78 310.579 461.729C323.425 478.906 327.089 484.321 333.601 492.999C338.376 499.298 342.831 505.833 346.952 512.579C351.105 519.848 353.805 531.299 355.288 537.307C356.685 543.221 357.115 549.322 356.564 555.374C356.564 555.374 354.443 568.576 356.697 568.265C358.952 567.953 378.191 557.703 383.858 550.776C389.524 543.849 389.791 535.749 384.792 523.111Z" fill="#FFA8A7"/>
<path d="M385.861 503.308C387.344 506.097 387.344 510.502 389.436 515.041C391.741 520.218 394.548 525.157 397.817 529.786L402.356 536.283L400.59 537.5C400.59 537.5 394.85 529.297 392.343 525.633C389.836 521.969 387.151 519.862 385.163 520.678C385.163 520.738 377.346 509.271 385.861 503.308Z" fill="#AC69DB"/>
<path opacity="0.3" d="M385.861 503.308C387.344 506.097 387.344 510.502 389.436 515.041C391.741 520.218 394.548 525.157 397.817 529.786L402.356 536.283L400.59 537.5C400.59 537.5 394.85 529.297 392.343 525.633C389.836 521.969 387.151 519.862 385.163 520.678C385.163 520.738 377.346 509.271 385.861 503.308Z" fill="black"/>
<path d="M369.751 491.693C372.94 493.948 377.924 494.986 382.478 498.635C384.369 500.192 385.732 502.296 386.38 504.658C385.994 507.076 385.43 508.218 385.074 509.954C384.243 512.741 384.101 515.688 384.659 518.542C385.504 522.844 388.886 530.676 390.993 536.239C393.099 541.802 390.162 546.088 387.64 551.265C385.682 555.285 377.257 564.067 370.789 569.066C362.067 575.786 354.087 574.999 353.879 569.066C353.701 564.037 356.297 553.045 356.846 551.592C359.398 549.805 362.326 548.628 365.405 548.15C371.991 546.904 376.649 549.367 380.238 543.077C383.457 537.366 385.519 525.395 376.382 512.757C365.983 498.413 369.751 491.693 369.751 491.693Z" fill="#AC69DB"/>
<path d="M330.041 401.994C328.337 400.492 326.723 398.892 325.205 397.202C325.324 396.832 325.458 396.446 325.576 396.031C322.802 392.53 320.162 389.519 317.774 386.952C321.185 370.739 327.505 340.226 329.715 329.59L318.56 303.364C318.56 303.364 292.868 289.539 278.019 275.863C278.316 280.313 278.865 285.252 279.636 289.821C278.911 289.714 278.17 289.762 277.465 289.962C276.759 290.163 276.104 290.511 275.543 290.983C274.982 291.456 274.527 292.042 274.21 292.704C273.893 293.365 273.72 294.087 273.703 294.82C271.181 312.977 289.456 331.43 289.456 331.43C289.456 331.43 287.765 341.309 284.16 361.275C280.833 380.445 279.146 399.863 279.117 419.32C286.92 430.504 299.958 448.364 310.728 461.685C323.574 478.862 327.238 484.276 333.75 492.954L333.972 493.251C341.196 463.02 340.84 450.96 335.886 433.827C338.065 429.756 339.992 425.555 341.656 421.248C338.265 414.552 334.382 408.117 330.041 401.994Z" fill="#F28F8F"/>
<path d="M284.309 577.432C286.341 571.588 290.346 560.522 290.836 552.215C291.088 547.854 290.984 537.722 290.391 528.481C289.515 515.338 289.545 508.559 287.098 473.759C283.478 422.093 282.247 414.751 285.273 391.358C288.299 367.965 292.927 332.142 292.927 332.142C292.927 332.142 285.199 324.072 276.981 303.958C272.872 293.93 268.511 274.29 269.861 266.547C269.861 266.547 279.992 275.121 308.295 274.35C337.221 273.563 348.658 268.579 348.658 268.579C350.304 272.792 355.926 281.099 360.421 289.792C363.64 296.007 368.564 306.361 365.598 326.727C363.521 341.027 356.786 350.224 350.126 374.003C343.466 397.781 330.486 432.967 330.486 432.967C333.319 451.375 335.811 462.411 328.899 495.387C325.235 512.846 318.931 541.653 320.384 545.925C320.847 547.15 321.47 548.307 322.239 549.367C322.239 549.367 319.48 568.324 316.765 581.645C314.05 594.966 309.348 601.611 300.878 604.326C292.408 607.04 270.617 605.127 268.57 604.148C266.523 603.169 275.512 593.275 275.512 593.275C279.272 588.497 282.242 583.149 284.309 577.432Z" fill="#FFA8A7"/>
<path d="M328.469 565.624C328.172 568.769 325.828 572.492 325.057 577.402C324.151 583.001 323.803 588.675 324.019 594.342C324.241 601.27 324.271 602.249 324.271 602.249H322.179C322.179 602.249 321.868 592.251 321.72 587.86C321.571 583.469 320.533 580.191 318.426 579.791C318.367 579.85 318.085 565.966 328.469 565.624Z" fill="#AC69DB"/>
<path opacity="0.3" d="M328.469 565.624C328.172 568.769 325.828 572.492 325.057 577.402C324.151 583.001 323.803 588.675 324.019 594.342C324.241 601.27 324.271 602.249 324.271 602.249H322.179C322.179 602.249 321.868 592.251 321.72 587.86C321.571 583.469 320.533 580.191 318.426 579.791C318.367 579.85 318.085 565.966 328.469 565.624Z" fill="black"/>
<path d="M321.319 547.097C322.802 550.731 326.362 554.321 328.202 559.854C328.943 562.19 328.943 564.698 328.202 567.034C326.555 568.858 325.443 569.496 324.212 570.757C321.991 572.638 320.26 575.031 319.168 577.729C317.522 581.793 316.083 590.204 314.807 596.019C313.531 601.834 308.725 603.806 303.8 606.758C299.944 609.058 288.047 611.787 279.992 612.41C269 613.285 262.756 608.271 265.796 603.213C268.392 598.911 276.566 591.124 277.827 590.189C280.936 590.087 284.027 590.701 286.86 591.984C293.061 594.535 295.612 599.149 302.035 595.811C307.85 592.844 316.112 583.944 315.386 568.324C314.51 550.642 321.319 547.097 321.319 547.097Z" fill="#AC69DB"/>
<path d="M203.317 178.642C200.246 163.942 202.412 142.211 208.449 129.469C216.682 112.128 227.511 103.732 238.117 116.385C248.723 129.038 242.834 167.932 237.197 177.085C231.56 186.237 206.877 193.98 203.317 178.642Z" fill="#263238"/>
<path d="M177.64 59.8985C176.847 64.719 176.352 69.5838 176.156 74.4652C176.156 74.4652 186.436 80.3987 189.388 81.882C192.34 83.3654 196.122 88.0529 199.519 98.6738C202.486 108.078 210.467 134.156 214.16 145.934C217.127 155.472 218.165 156.911 232.257 170.321C243.472 180.986 268.096 200.789 271.596 209.452C295.775 195.775 294.544 167.754 294.544 167.754C288.611 166.39 279.903 159.522 271.27 152.921C262.993 146.616 246.26 132.153 246.26 132.153C246.26 132.153 217.661 77.5654 214.012 69.7184C213.097 67.5769 211.665 65.696 209.844 64.2448C207.707 62.4322 205.723 60.4477 203.91 58.3113C202.538 56.729 200.956 55.3416 199.208 54.1875C198.041 53.4482 196.702 53.024 195.321 52.9563C194.559 52.9808 193.801 53.0651 193.052 53.2085C190.589 53.5793 188.097 53.698 185.635 54.0837C183.702 54.3521 181.822 54.9123 180.058 55.745C179.725 55.8352 179.418 56.0014 179.16 56.2305C178.903 56.4596 178.702 56.7453 178.574 57.0652C178.183 57.9816 177.871 58.9294 177.64 59.8985Z" fill="#FFA8A7"/>
<path d="M192.221 68.9917C193.752 69.5016 195.166 70.3129 196.379 71.3778C197.591 72.4427 198.579 73.7397 199.282 75.1922C197.799 71.0981 196.79 69.8817 192.696 67.5973L192.221 68.9917Z" fill="#F28F8F"/>
<path d="M191.643 83.5286C192.519 84.3796 193.304 85.3191 193.986 86.3322C195.006 86.4135 196.03 86.2242 196.953 85.7834C198.97 84.8192 200.513 81.3333 200.513 81.3333C199.47 82.3471 198.28 83.1973 196.983 83.855C196.138 84.2593 195.205 84.4415 194.27 84.3844C193.336 84.3273 192.431 84.0328 191.643 83.5286Z" fill="#F28F8F"/>
<path d="M177.269 47.987C176.562 48.296 175.967 48.8136 175.563 49.4704C175.474 49.7374 175.429 50.0341 175.355 50.3159C174.747 52.7042 174.05 55.0627 173.323 57.4213C172.803 59.4731 172.061 61.4625 171.113 63.3548C170.342 64.6121 169.131 65.5375 167.716 65.9507C168.634 67.7533 169.831 69.4002 171.261 70.831C172.826 72.1161 174.482 73.2861 176.216 74.3317C177.604 71.2312 178.793 68.0454 179.776 64.7936C180.651 61.9847 181.257 59.0989 181.585 56.1753C181.867 53.431 181.986 49.7077 179.182 48.1502C178.796 47.9246 178.353 47.8163 177.907 47.8387C177.687 47.8525 177.472 47.9027 177.269 47.987Z" fill="#FFA8A7"/>
<path d="M178.589 39.0868C178.426 41.3267 179.509 43.1809 180.859 46.3405C181.496 47.8239 181.956 48.9364 182.342 49.8116L186.94 48.9364C185.338 45.3615 182.743 42.632 178.589 39.0868Z" fill="#F28F8F"/>
<path d="M152.942 100.35L177.625 58.1333L180.755 52.0663L203.005 3.7677L203.376 2.98151C204.251 1.29047 206.224 0.192775 209.117 0.0147705C212.272 0.0390968 215.377 0.808177 218.179 2.2594C220.981 3.71063 223.401 5.80299 225.241 8.36615C226.813 10.8137 227.051 13.0684 226.176 14.7446L199.163 61.6043L196.093 67.6417L175.667 112.395C174.777 114.042 172.804 115.139 169.956 115.258C166.8 115.224 163.696 114.451 160.894 113.001C158.091 111.55 155.667 109.463 153.817 106.907C152.259 104.459 152.037 102.189 152.897 100.513L153.031 100.276L152.942 100.35Z" fill="#AC69DB"/>
<path opacity="0.4" d="M152.942 100.35L177.625 58.1333L180.755 52.0663L203.005 3.7677L203.376 2.98151C204.251 1.29047 206.224 0.192775 209.117 0.0147705C212.272 0.0390968 215.377 0.808177 218.179 2.2594C220.981 3.71063 223.401 5.80299 225.241 8.36615C226.813 10.8137 227.051 13.0684 226.176 14.7446L199.163 61.6043L196.093 67.6417L175.667 112.395C174.777 114.042 172.804 115.139 169.956 115.258C166.8 115.224 163.696 114.451 160.894 113.001C158.091 111.55 155.667 109.463 153.817 106.907C152.259 104.459 152.037 102.189 152.897 100.513L153.031 100.276L152.942 100.35Z" fill="white"/>
<path opacity="0.1" d="M204.355 1.75037C203.961 2.09794 203.634 2.51534 203.391 2.98156L203.02 3.76775L180.769 52.0663L177.64 58.1333L152.941 100.35L152.808 100.587C151.948 102.264 152.17 104.533 153.728 106.981C156.306 110.574 159.997 113.217 164.23 114.501L213.745 18.9278C213.745 18.9278 203.257 11.4071 204.355 1.75037Z" fill="black"/>
<path d="M209.132 0C206.239 0.133503 204.251 1.2312 203.376 2.96674C202.501 4.70229 202.753 6.91251 204.311 9.34524C206.141 11.9267 208.556 14.0385 211.358 15.508C214.16 16.9776 217.271 17.7631 220.435 17.8005C223.402 17.667 225.315 16.5544 226.19 14.8337C227.066 13.113 226.828 10.8879 225.256 8.44038C223.425 5.86079 221.01 3.75122 218.207 2.28423C215.405 0.817234 212.295 0.0344821 209.132 0Z" fill="#AC69DB"/>
<path d="M152.526 101.092L152.927 100.335L177.61 58.1185L180.74 52.0515L202.99 3.75293C199.875 11.4813 209.577 18.8685 209.577 18.8685L158.712 116.979C158.712 116.979 148.388 109.087 152.526 101.092Z" fill="#AC69DB"/>
<path opacity="0.6" d="M152.526 101.092L152.927 100.335L177.61 58.1185L180.74 52.0515L202.99 3.75293C199.875 11.4813 209.577 18.8685 209.577 18.8685L158.712 116.979C158.712 116.979 148.388 109.087 152.526 101.092Z" fill="white"/>
<path opacity="0.25" d="M209.132 0C206.239 0.133503 204.251 1.2312 203.376 2.96674C202.501 4.70229 202.753 6.91251 204.311 9.34524C206.141 11.9267 208.556 14.0385 211.358 15.508C214.16 16.9776 217.271 17.7631 220.435 17.8005C223.402 17.667 225.315 16.5544 226.19 14.8337C227.066 13.113 226.828 10.8879 225.256 8.44038C223.425 5.86079 221.01 3.75122 218.207 2.28423C215.405 0.817234 212.295 0.0344821 209.132 0Z" fill="white"/>
<path opacity="0.5" d="M217.483 10.5319C223.683 9.86443 219.827 3.11509 212.543 0.326352C211.421 0.0998072 210.275 0.0101533 209.132 0.059348C206.239 0.192851 204.251 1.29055 203.376 3.02609C202.501 4.76164 202.753 6.97186 204.311 9.40459C206.752 12.8822 210.246 15.4825 214.279 16.8214L217.483 10.5319Z" fill="#AC69DB"/>
<path d="M220.316 9.12268L216.104 17.2664C215.485 17.1217 214.875 16.9384 214.279 16.7175L217.483 10.5319C218.029 10.5145 218.565 10.3796 219.054 10.1364C219.542 9.89326 219.973 9.54747 220.316 9.12268Z" fill="#AC69DB"/>
<path opacity="0.1" d="M220.316 9.12268L216.104 17.2664C215.485 17.1217 214.875 16.9384 214.279 16.7175L217.483 10.5319C218.029 10.5145 218.565 10.3796 219.054 10.1364C219.542 9.89326 219.973 9.54747 220.316 9.12268Z" fill="black"/>
<path d="M178.292 60.6847C173.768 68.1016 166.351 73.0708 157.184 76.6903C159.677 77.3846 162.277 77.6159 164.853 77.3726C164.173 79.3938 163.225 81.3146 162.035 83.0836C170.594 79.1823 177.818 74.0647 183.054 67.1374L182.016 65.654L178.292 60.6847Z" fill="#AC69DB"/>
<path opacity="0.2" d="M176.067 63.8739L178.381 65.4463L180.918 69.7184C181.675 68.8729 182.401 68.0125 183.084 67.0929L182.045 65.6095L178.292 60.6847C177.624 61.7969 176.88 62.8624 176.067 63.8739Z" fill="black"/>
<path d="M177.625 58.1333C177.291 58.9777 177.185 59.8951 177.318 60.7934C177.451 61.6916 177.818 62.5392 178.381 63.2509C179.869 65.3204 181.824 67.01 184.086 68.1827C186.349 69.3554 188.857 69.9781 191.405 70.0002C192.306 70.0492 193.203 69.8629 194.009 69.4598C194.816 69.0566 195.503 68.4505 196.004 67.701L199.134 61.6637C198.64 62.4031 197.965 63.003 197.173 63.4057C196.38 63.8084 195.498 64.0003 194.61 63.9629C192.061 63.9408 189.553 63.3181 187.291 62.1454C185.028 60.9727 183.073 59.2831 181.586 57.2136C181.013 56.5002 180.643 55.6464 180.512 54.7412C180.382 53.8359 180.496 52.9123 180.844 52.0663L177.714 58.1036L177.625 58.1333Z" fill="#AC69DB"/>
<path opacity="0.15" d="M185.872 61.3671C184.586 60.5576 183.431 59.5573 182.446 58.4003L179.316 64.4376C180.301 65.5946 181.456 66.595 182.742 67.4044L185.872 61.3671ZM178.381 63.2509L181.511 57.2136C181.117 56.6005 180.808 55.9369 180.592 55.2407L177.462 61.278C177.678 61.9742 177.987 62.6379 178.381 63.2509Z" fill="white"/>
<path opacity="0.1" d="M187.875 69.6146C189.028 69.9071 190.216 70.0369 191.405 70.0002C192.306 70.0492 193.203 69.8629 194.009 69.4598C194.816 69.0566 195.503 68.4505 196.004 67.701L199.134 61.6637C198.64 62.4031 197.965 63.003 197.173 63.4057C196.38 63.8084 195.498 64.0003 194.609 63.9629C193.42 63.9996 192.232 63.8698 191.079 63.5772L187.875 69.6146Z" fill="black"/>
<path opacity="0.2" d="M186.792 54.2024C186.109 52.453 185.249 50.778 184.226 49.2034C183.763 48.6267 183.212 48.1262 182.594 47.7201C182.045 47.3344 181.571 46.8301 181.111 46.4592C179.689 45.5743 178.138 44.9185 176.512 44.516L174.554 61.7973V61.8863C174.517 62.8577 174.733 63.822 175.18 64.6852C175.628 65.5484 176.291 66.2808 177.106 66.8111C177.479 67.1116 177.87 67.389 178.278 67.6418H178.174C177.865 67.9224 177.501 68.1348 177.105 68.2652C176.709 68.3955 176.289 68.4409 175.874 68.3983C174.628 68.3093 172.344 66.5886 170.327 66.9149C171.677 66.9149 174.272 68.4873 175.548 69.051C176.218 69.4364 176.996 69.5914 177.762 69.4923C178.528 69.3931 179.241 69.0453 179.791 68.5021C180.065 68.0955 180.245 67.6333 180.32 67.1485C180.394 66.6638 180.36 66.1686 180.221 65.6985C181.076 66.0814 182.041 66.1421 182.938 65.8695C183.835 65.5969 184.603 65.0094 185.101 64.2152C185.377 63.4713 185.448 62.6672 185.309 61.8863C185.146 60.9814 184.523 60.2101 184.419 59.2755C185.58 59.0417 186.669 58.5331 187.593 57.7922C188.528 56.828 187.311 55.3001 186.792 54.2024Z" fill="black"/>
<path opacity="0.2" d="M185.279 45.5691C185.605 45.6514 185.947 45.6514 186.273 45.5691C186.653 45.4272 186.997 45.2054 187.284 44.9188C187.571 44.6322 187.792 44.2874 187.934 43.9078C188.263 42.8256 188.319 41.6792 188.097 40.5702C187.967 39.5871 187.743 38.6186 187.43 37.6776L184.226 44.694C184.334 44.9026 184.483 45.0876 184.664 45.2378C184.845 45.3881 185.054 45.5008 185.279 45.5691Z" fill="black"/>
<path d="M178.708 38.3155C178.144 40.7186 179.435 41.7718 180.681 43.3442C181.927 44.9165 185.131 46.6521 186.392 45.3764C187.652 44.1007 187.237 41.5938 185.59 38.9386C183.944 36.2833 182.757 35.2598 181.763 35.4081C181.062 35.6192 180.42 35.9924 179.889 36.4974C179.358 37.0025 178.953 37.6253 178.708 38.3155Z" fill="#FFA8A7"/>
<path d="M183.336 61.6192C183.299 62.1985 183.06 62.7467 182.662 63.1692C182.264 63.5917 181.731 63.8619 181.155 63.9333C180.321 64.1285 179.447 64.0665 178.648 63.7553C178.945 65.2387 179.078 66.989 177.64 68.0274C175.77 69.3921 173.501 67.5231 171.706 67.0632C170.697 66.811 169.867 67.345 168.932 67.2264C167.998 67.1077 167.538 65.4463 167.286 64.6008C166.892 63.3453 166.892 61.9996 167.286 60.744C167.549 60.1598 167.762 59.5544 167.923 58.9343C167.97 58.2976 167.92 57.6575 167.775 57.0356C167.523 56.0755 167.634 55.0562 168.087 54.1727C168.532 53.4755 169.333 53.0453 169.659 52.2888C169.84 51.6982 169.881 51.0734 169.778 50.4643C169.657 49.1288 169.866 47.7841 170.386 46.5482C170.646 45.9332 171.041 45.3845 171.541 44.9428C172.042 44.5012 172.636 44.1778 173.278 43.9968C174.115 43.8189 174.979 43.8189 175.815 43.9968C177.966 44.3528 180.844 44.783 182.357 46.474C183.694 48.3604 184.785 50.409 185.605 52.5707C185.899 52.9584 186.081 53.4194 186.131 53.9033C186.18 54.3873 186.096 54.8756 185.887 55.3149C185.645 55.7286 185.318 56.0857 184.926 56.3621C184.535 56.6384 184.088 56.8276 183.618 56.917C182.923 56.9903 182.221 56.9196 181.556 56.7093C182.46 58.6673 183.529 59.8689 183.336 61.6192Z" fill="#FFA8A7"/>
<path d="M196.33 42.5579C196.393 42.6309 196.448 42.7105 196.493 42.7952C197.428 44.2786 197.977 46.0141 198.822 47.5568C200.188 49.5497 201.76 51.3942 203.51 53.0601C206.823 56.4106 209.569 60.2785 211.639 64.5118C211.876 65.0161 213.849 69.5107 213.982 69.4959L197.858 71.7061C197.956 68.414 197.453 65.1316 196.375 62.0197C195.855 60.3287 194.787 57.9701 194.342 56.7834C193.273 54.2475 192.53 51.5857 192.132 48.8622C191.879 47.0053 192.277 45.1181 193.26 43.5221C193.883 42.4689 195.336 41.3563 196.33 42.5579Z" fill="#FFA8A7"/>
<path d="M298.445 167.755C290.124 164.091 284.754 162.192 271.478 151.704C258.201 141.217 250.443 133.904 250.073 132.421C249.702 130.937 248.263 126.784 245.919 126.769C246.034 124.404 245.32 122.074 243.901 120.178C242.483 118.283 240.447 116.942 238.146 116.385C240.816 121.622 240.624 128.772 240.698 131.323C240.933 137.559 240.67 143.804 239.911 149.999C238.562 160.011 235.224 169.965 228.89 177.841C226.128 181.602 222.274 184.419 217.854 185.911C214.971 186.755 211.875 186.474 209.191 185.125C206.507 183.776 204.434 181.46 203.391 178.642C205.393 188.804 212.884 191.029 218.862 191.741C225.152 192.467 230.522 192.304 237.597 193.224C245.06 194.135 252.417 195.765 259.566 198.089C265.381 199.929 269.772 206.278 271.848 211.84C271.848 211.84 286.445 206.456 291.488 193.224C294.593 184.969 296.922 176.442 298.445 167.755Z" fill="#455A64"/>
<path d="M246.364 129.053C246.364 128.831 246.097 128.786 246.082 129.053C245.726 132.836 245.726 136.648 245.578 140.446C245.43 144.243 245.207 148.011 244.733 151.764C243.983 158.268 242.206 164.611 239.467 170.558C237.899 173.843 236.016 176.967 233.845 179.888C233.741 180.022 233.845 180.437 234.067 180.244C238.581 175.531 241.844 169.764 243.561 163.468C245.586 156.444 246.654 149.179 246.735 141.87C246.862 137.594 246.738 133.315 246.364 129.053Z" fill="#37474F"/>
<path d="M251.259 139.823C251.206 138.322 250.997 136.83 250.636 135.372C250.562 135.105 250.206 135.031 250.191 135.372C250.087 136.752 250.354 138.191 250.384 139.57C250.414 140.95 250.384 142.537 250.384 144.021C250.319 146.792 250.077 149.557 249.657 152.298C248.793 157.796 247.3 163.176 245.207 168.333C245.133 168.511 245.355 168.897 245.489 168.63C248.117 163.456 249.891 157.89 250.74 152.149C251.155 149.36 251.363 146.544 251.363 143.724C251.408 142.478 251.378 141.158 251.259 139.823Z" fill="#37474F"/>
<path d="M366.458 302.118C362.928 288.768 357.113 281.588 350.883 265.865C344.652 250.141 353.434 236.449 356.727 224.212C356.727 224.212 349.31 221.616 345.439 204.839C343.688 197.229 346.329 185.08 351.624 178.375L331.48 171.493C331.48 171.493 323.945 170.217 307.45 168.911L294.099 167.68C294.099 167.68 274.815 184.709 263.453 198.994C259.487 204.366 257.652 211.017 258.301 217.663C258.951 224.308 262.038 230.478 266.968 234.981C268.585 248.969 269.668 259.753 269.668 259.753C259.284 292.491 256.926 330.362 254.612 376.939C267.784 400.51 287.943 407.927 314.926 410.894C341.908 413.861 351.461 401.89 351.461 401.89C351.461 401.89 356.134 383.541 361.014 362.061C366.28 338.817 370.908 318.925 366.458 302.118Z" fill="#AC69DB"/>
<path opacity="0.2" d="M295.479 242.783C307.034 252.87 329.3 250.512 334.922 236.85C334.655 256.297 304.794 259.442 295.479 242.783Z" fill="black"/>
<path d="M333.601 60.0618L381.069 115.777L330.219 132.94L280.274 85.0417L333.601 60.0618Z" fill="#263238"/>
<path d="M348.035 169.104C353.553 169.742 359.026 166.241 361.741 161.391C364.274 156.38 364.921 150.626 363.565 145.178C362.788 141.75 361.639 138.417 360.139 135.239C359.086 132.925 356.43 129.409 356.786 126.769C357.587 120.732 367.17 110.452 364.203 105.097C361.427 100.334 357.755 96.1529 353.39 92.7849C345.405 86.1775 335.718 81.9564 325.443 80.6064C322.978 80.3616 320.502 80.2576 318.026 80.2949C314.859 80.2077 311.691 80.4113 308.562 80.9031C304.379 81.6744 302.999 86.1839 301.828 89.6846C300.507 93.6007 299.261 97.1905 294.959 98.3178C293.052 98.8877 291.319 99.9282 289.919 101.343C288.519 102.759 287.498 104.504 286.949 106.417C286.427 108.337 286.389 110.356 286.836 112.295C287.284 114.233 288.204 116.031 289.516 117.528C289.196 115.573 289.39 113.569 290.079 111.713C289.664 112.825 291.029 115.169 291.563 116.044C292.349 117.216 293.58 117.987 294.351 119.13C296.235 121.918 294.351 124.959 291.681 126.294C290.317 126.991 288.833 127.407 287.454 128.045C284.956 129.185 282.821 130.992 281.282 133.266C279.743 135.54 278.86 138.194 278.73 140.936C278.599 143.679 279.227 146.405 280.543 148.814C281.86 151.224 283.814 153.225 286.193 154.597C285.528 153.048 285.259 151.358 285.412 149.68C285.565 148.001 286.134 146.388 287.068 144.985C286.656 149.079 287.847 153.173 290.391 156.407C294.366 161.791 299.973 164.906 306.233 166.79C312.493 168.674 319.109 170.677 325.517 170.232C328.631 170.256 331.741 169.983 334.803 169.416C337.792 168.625 340.698 167.547 343.481 166.197C345.987 165.04 348.672 163.527 349.533 160.916C349.449 163.705 348.944 166.466 348.035 169.104Z" fill="#263238"/>
<path d="M353.983 130.018C349.399 127.362 346.195 129.736 342.947 132.465C341.745 133.474 339.268 134.393 337.992 132.94C336.969 131.738 337.369 129.469 337.606 128.104C337.952 126.714 337.977 125.264 337.679 123.863C337.38 122.463 336.767 121.148 335.886 120.02C334.017 117.814 332.714 115.187 332.088 112.365C331.587 115.869 332.356 119.436 334.254 122.423C327.475 119.901 320.904 113.76 319.094 106.625C318.844 109.639 319.233 112.672 320.236 115.525C310.668 112.321 305.521 104.756 308.191 94.9358C304.9 96.7863 302.122 99.427 300.107 102.62C297.401 106.451 295.444 110.759 294.337 115.317C293.921 117.008 292.66 121.622 291.147 127.392C286.697 144.362 292.245 150.444 294.93 153.247C297.615 156.051 302.762 158.632 309.452 159.566L307.672 168.986C307.672 168.986 273.866 187.305 292.631 199.35C331.198 215.044 333.868 186.297 337.473 173.91L342.279 148.5C343.762 152.224 348.939 152.238 352.544 148.827C358.24 143.398 360.747 133.919 353.983 130.018Z" fill="#FFA8A7"/>
<path d="M324.137 115.703L329.656 120.153C329.965 119.809 330.201 119.406 330.35 118.968C330.498 118.529 330.555 118.065 330.517 117.604C330.48 117.143 330.349 116.695 330.131 116.286C329.914 115.877 329.616 115.517 329.255 115.228C328.503 114.638 327.554 114.358 326.602 114.447C325.65 114.535 324.768 114.984 324.137 115.703Z" fill="#263238"/>
<path d="M313.873 117.884L309.244 135.788L299.899 130.819L313.873 117.884Z" fill="#F28F8F"/>
<path d="M309.452 159.507C320.74 160.634 329.596 159.003 336.449 149.123C336.449 149.123 334.788 159.166 326.585 162.919C320.533 165.693 308.31 165.663 308.31 165.663L309.452 159.507Z" fill="#F28F8F"/>
<path d="M318.649 131.59C318.443 132.676 318.564 133.798 318.996 134.815C319.428 135.833 320.151 136.699 321.075 137.306C321.999 137.912 323.082 138.231 324.187 138.223C325.292 138.214 326.37 137.878 327.284 137.258C328.199 136.637 328.909 135.759 329.325 134.735C329.741 133.712 329.844 132.587 329.621 131.505C329.399 130.422 328.861 129.43 328.075 128.653C327.289 127.876 326.29 127.35 325.205 127.14C324.483 127 323.739 127.004 323.018 127.153C322.297 127.301 321.612 127.59 321.003 128.003C320.394 128.417 319.872 128.946 319.468 129.562C319.064 130.177 318.786 130.867 318.649 131.59Z" fill="#F28F8F"/>
<path d="M299.736 125.063C299.876 124.34 299.871 123.597 299.723 122.876C299.575 122.155 299.286 121.47 298.872 120.861C298.459 120.251 297.929 119.73 297.314 119.326C296.698 118.922 296.009 118.644 295.286 118.507C294.657 118.403 294.016 118.403 293.387 118.507C292.749 120.761 291.904 123.817 291.118 127.407L290.895 128.519C291.562 129.035 292.338 129.39 293.165 129.558C293.892 129.699 294.64 129.695 295.365 129.545C296.09 129.395 296.779 129.102 297.39 128.684C298.001 128.266 298.523 127.731 298.926 127.109C299.329 126.487 299.604 125.792 299.736 125.063Z" fill="#F28F8F"/>
<path d="M319.598 125.256C319.005 126.917 321.082 125.508 322.684 126.101C324.286 126.695 325.013 129.068 325.65 127.407C325.936 126.61 325.893 125.733 325.531 124.968C325.169 124.203 324.519 123.613 323.722 123.327C322.925 123.042 322.048 123.085 321.283 123.447C320.518 123.808 319.928 124.459 319.643 125.256H319.598Z" fill="#263238"/>
<path d="M327.312 127.036C327.312 127.036 327.312 127.036 327.312 127.125C327.158 127.402 326.933 127.633 326.659 127.792C326.449 127.913 326.207 127.966 325.966 127.945C325.724 127.923 325.495 127.829 325.309 127.674C325.19 127.555 325.103 127.406 325.057 127.244C325.042 127.17 325.042 127.094 325.057 127.021C325.071 126.932 325.101 126.847 325.146 126.769C325.146 126.65 325.324 126.101 325.547 126.161C325.769 126.22 325.636 126.161 325.68 126.279C325.815 126.523 326.016 126.723 326.259 126.858C326.55 126.968 326.872 126.968 327.164 126.858C327.164 126.858 327.282 126.858 327.327 126.858C327.344 126.885 327.352 126.917 327.349 126.949C327.346 126.982 327.333 127.012 327.312 127.036Z" fill="#263238"/>
<path d="M296.873 119.07C296.532 120.791 298.356 119.07 300.047 119.441C301.739 119.812 302.792 122.022 303.118 120.287C303.198 119.876 303.196 119.455 303.113 119.045C303.03 118.636 302.867 118.247 302.634 117.9C302.4 117.554 302.101 117.257 301.752 117.026C301.404 116.796 301.014 116.636 300.604 116.556C300.194 116.476 299.772 116.478 299.363 116.561C298.953 116.644 298.564 116.807 298.218 117.04C297.871 117.274 297.574 117.573 297.343 117.922C297.113 118.27 296.953 118.66 296.873 119.07Z" fill="#263238"/>
<path d="M295.479 117.78C295.472 117.809 295.472 117.839 295.479 117.869C295.457 118.184 295.529 118.499 295.686 118.774C295.808 118.984 295.991 119.154 296.211 119.259C296.43 119.365 296.676 119.403 296.917 119.367C297.08 119.321 297.228 119.234 297.348 119.115C297.408 119.069 297.454 119.007 297.481 118.937C297.495 118.853 297.495 118.768 297.481 118.685C297.481 118.536 297.674 118.002 297.481 117.958C297.424 117.936 297.36 117.936 297.303 117.958C297.062 118.103 296.783 118.17 296.502 118.151C296.192 118.12 295.905 117.971 295.701 117.735C295.681 117.723 295.658 117.717 295.634 117.717C295.611 117.717 295.588 117.723 295.568 117.735C295.568 117.735 295.479 117.735 295.479 117.78Z" fill="#263238"/>
<path d="M305.937 140.09C305.983 141.455 306.567 142.747 307.562 143.683C308.557 144.619 309.881 145.125 311.247 145.089C311.921 145.085 312.587 144.947 313.208 144.685C313.828 144.422 314.391 144.039 314.862 143.557C315.334 143.076 315.706 142.506 315.956 141.88C316.206 141.255 316.33 140.585 316.32 139.912L305.937 140.09Z" fill="#B16668"/>
<path d="M316.083 141.558C315.748 142.579 315.101 143.468 314.233 144.102C313.365 144.735 312.321 145.08 311.247 145.089C310.632 145.1 310.02 145.005 309.437 144.807C309.899 143.503 310.854 142.432 312.096 141.824C313.339 141.217 314.77 141.121 316.083 141.558Z" fill="#F28F8F"/>
<path d="M299.246 109.77L306.263 110.066C306.293 109.61 306.231 109.153 306.082 108.721C305.932 108.289 305.698 107.891 305.393 107.551C305.087 107.211 304.717 106.935 304.303 106.741C303.89 106.546 303.441 106.436 302.984 106.417C302.048 106.38 301.134 106.71 300.436 107.335C299.738 107.961 299.311 108.834 299.246 109.77Z" fill="#263238"/>
<path d="M322.669 116.46L329.107 120.361C329.382 119.961 329.572 119.508 329.665 119.032C329.758 118.555 329.753 118.064 329.648 117.59C329.544 117.116 329.343 116.668 329.059 116.275C328.774 115.881 328.412 115.55 327.994 115.303C327.124 114.791 326.092 114.627 325.106 114.841C324.119 115.055 323.249 115.633 322.669 116.46Z" fill="#263238"/>
<path d="M356.786 126.71C356.786 126.71 352.425 113.611 341.196 106.209C329.967 98.8073 315.504 101.121 315.504 101.121C315.504 101.121 309.986 96.3004 303.934 96.0927C297.882 95.8851 295.034 98.2733 295.034 98.2733L304.023 80.2207C304.023 80.2207 311.959 73.5455 330.101 78.3516C348.687 83.2764 360.495 94.3572 363.921 107.589L356.786 126.71Z" fill="#37474F"/>
<path d="M280.274 85.0417L281.342 81.5261L334.669 56.5461L333.601 60.0617L280.274 85.0417Z" fill="#455A64"/>
<path opacity="0.2" d="M280.274 85.0417L281.342 81.5261L334.669 56.5461L333.601 60.0617L280.274 85.0417Z" fill="white"/>
<path d="M334.669 56.5461L333.601 60.0617L381.069 115.777L382.122 112.276L334.669 56.5461Z" fill="#37474F"/>
<path d="M395.324 139.2C388.219 140.52 380.491 137.034 376.041 131.531C372.222 126.735 370.457 120.624 371.131 114.531C371.427 111.564 372.08 108.598 372.495 105.631C372.718 104.197 372.837 102.75 372.851 101.299C372.901 99.2861 372.605 97.2792 371.976 95.3659C371.158 92.7417 369.616 90.402 367.526 88.6166C365.08 86.7971 362.191 85.6652 359.16 85.3383L356.905 82.6831C358.166 82.8314 359.412 83.0095 360.613 83.232C363.768 83.7 366.748 84.9777 369.261 86.9404C371.39 88.7696 373.014 91.1137 373.979 93.7491C374.988 96.4699 375.446 99.3641 375.328 102.264C375.328 102.887 375.254 103.524 375.18 104.147C375.047 105.497 374.809 106.832 374.572 108.197C374.335 109.562 373.979 111.372 373.756 112.959C373.208 116.169 373.339 119.459 374.142 122.615C374.942 125.482 376.348 128.143 378.266 130.418C380.321 132.797 382.893 134.675 385.786 135.906C388.731 137.023 391.836 137.66 394.983 137.79C395.74 137.805 396.348 139.007 395.324 139.2Z" fill="#AC69DB"/>
<path d="M411.271 124.603C408.839 127.279 406.201 129.759 403.379 132.02C397.861 136.47 394.583 136.47 395.102 138.339C395.621 140.208 401.718 139.956 408.185 138.25C411.615 137.387 414.77 135.667 417.352 133.251C417.456 133.126 417.513 132.969 417.513 132.806C417.513 132.644 417.456 132.486 417.352 132.361C417.273 132.257 417.161 132.183 417.035 132.151C416.908 132.118 416.774 132.13 416.655 132.183C417.071 131.783 417.367 131.516 417.071 131.026C417.022 130.951 416.958 130.888 416.883 130.839C416.808 130.791 416.724 130.759 416.636 130.745C416.548 130.731 416.458 130.735 416.372 130.758C416.286 130.781 416.205 130.822 416.136 130.878C413.535 132.895 410.561 134.377 407.384 135.239C410.664 133.685 413.639 131.555 416.166 128.949C416.267 128.823 416.322 128.666 416.322 128.504C416.322 128.343 416.267 128.186 416.166 128.059C416.103 127.987 416.026 127.929 415.939 127.889C415.852 127.85 415.757 127.829 415.661 127.829C415.566 127.829 415.471 127.85 415.384 127.889C415.297 127.929 415.22 127.987 415.157 128.059C411.871 131.461 407.832 134.043 403.364 135.595C407.279 133.724 410.803 131.127 413.748 127.941C413.886 127.797 413.963 127.606 413.963 127.407C413.963 127.208 413.886 127.016 413.748 126.873C413.675 126.802 413.588 126.748 413.492 126.714C413.397 126.68 413.295 126.666 413.194 126.675C413.092 126.683 412.994 126.713 412.906 126.763C412.817 126.812 412.74 126.88 412.68 126.962C410.31 129.499 407.551 131.643 404.506 133.311C404.759 133.088 409.669 128.46 412.205 125.701C412.311 125.579 412.369 125.424 412.369 125.263C412.369 125.102 412.311 124.947 412.205 124.826L412.131 124.737C412.027 124.615 411.883 124.535 411.726 124.51C411.568 124.486 411.406 124.519 411.271 124.603ZM403.483 137.79C407.827 137.065 411.967 135.427 415.632 132.984C412.237 135.909 407.959 137.612 403.483 137.82V137.79Z" fill="#AC69DB"/>
<path d="M393.47 137.331C393.226 137.718 393.103 138.169 393.115 138.627C393.128 139.084 393.276 139.528 393.541 139.901C393.805 140.275 394.175 140.561 394.602 140.725C395.03 140.888 395.496 140.921 395.943 140.819C396.389 140.718 396.795 140.486 397.11 140.153C397.424 139.821 397.633 139.402 397.71 138.951C397.787 138.5 397.728 138.036 397.541 137.618C397.354 137.2 397.047 136.847 396.659 136.604C396.403 136.44 396.116 136.329 395.817 136.277C395.517 136.225 395.21 136.233 394.913 136.301C394.616 136.369 394.336 136.494 394.088 136.671C393.841 136.848 393.631 137.072 393.47 137.331Z" fill="#AC69DB"/>
<path opacity="0.2" d="M393.47 137.331C393.226 137.718 393.103 138.169 393.115 138.627C393.128 139.084 393.276 139.528 393.541 139.901C393.805 140.275 394.175 140.561 394.602 140.725C395.03 140.888 395.496 140.921 395.943 140.819C396.389 140.718 396.795 140.486 397.11 140.153C397.424 139.821 397.633 139.402 397.71 138.951C397.787 138.5 397.728 138.036 397.541 137.618C397.354 137.2 397.047 136.847 396.659 136.604C396.403 136.44 396.116 136.329 395.817 136.277C395.517 136.225 395.21 136.233 394.913 136.301C394.616 136.369 394.336 136.494 394.088 136.671C393.841 136.848 393.631 137.072 393.47 137.331Z" fill="black"/>
<path d="M363.269 213.427C363.269 253.671 367.229 274.839 370.152 302.222C373.534 333.803 376.723 354.036 379.482 381.048C381.633 402.29 389.762 445.264 389.762 445.264C389.762 445.264 386.187 463.91 352.855 479.277C320.221 494.304 298.594 491.53 298.594 491.53C298.594 491.53 301.931 363.144 308.488 293.633C308.488 293.633 320.088 235.99 335.188 218.916C350.289 201.842 363.269 213.427 363.269 213.427Z" fill="#455A64"/>
<path d="M359.768 299.775C363.61 308.259 368.995 318.836 372.94 326.371C372.021 318.955 371.101 311.033 370.152 302.222C367.867 280.787 364.915 263.165 363.758 237.221L346.076 236.954C349.77 266.577 353.019 284.807 359.768 299.775Z" fill="#37474F"/>
<path d="M459.643 346.738C457.869 346.735 456.145 346.151 454.733 345.077C454.17 344.626 453.644 344.129 453.161 343.593C453.078 343.49 452.971 343.408 452.849 343.356C452.705 343.305 452.548 343.305 452.404 343.356C451.31 343.638 450.171 343.699 449.053 343.536C447.935 343.373 446.861 342.989 445.892 342.407L438.179 338.491C436.717 337.817 435.338 336.976 434.07 335.984C432.804 334.977 431.928 333.561 431.593 331.979C431.411 331.057 431.591 330.1 432.097 329.308C432.463 328.844 432.93 328.469 433.462 328.211C435.136 327.482 436.978 327.225 438.787 327.469C444.02 327.877 449.027 329.771 453.22 332.928C454.793 334.1 456.261 335.39 457.67 336.651C459.08 337.912 459.376 339.737 459.94 341.294C460.274 342.236 460.686 343.149 461.171 344.024C461.483 344.543 462.313 345.106 462.135 345.789C461.957 346.471 461.468 346.471 460.978 346.56C460.54 346.66 460.093 346.719 459.643 346.738Z" fill="#F28F8F"/>
<path d="M435.568 341.175C432.245 339.143 428.685 338.654 425.007 337.541C422.485 336.785 420.141 335.687 417.59 334.945C415.011 334.421 412.516 333.547 410.173 332.349C408.078 331.13 406.363 329.354 405.218 327.217C403.864 324.711 402.285 322.333 400.501 320.112C395.873 314.401 380.965 297.446 370.374 285.371C363.091 277.064 361.044 273.504 359.263 267.571C350.615 239.001 344.267 220.8 344.267 220.8C339.015 205.966 342.665 185.199 351.58 178.375C369.781 184.146 371.056 187.365 378.963 214.317C383.413 229.537 385.044 238.2 392.016 262.883C408.2 289.584 420.438 312.472 422.336 314.223C425.303 316.982 433.699 318.673 440.715 321.639C444.394 323.123 448.028 324.606 451.826 325.882C452.973 326.116 454.063 326.577 455.03 327.236C455.998 327.896 456.825 328.741 457.463 329.724L462.922 336.696C464.405 338.683 466.496 340.152 468.158 342.051C468.386 342.286 468.558 342.57 468.662 342.881C469.478 346.026 463.545 344.988 462.239 344.468C460.625 343.733 459.101 342.812 457.7 341.724C455.615 340.177 453.678 338.439 451.915 336.532C450.124 334.492 447.671 333.148 444.988 332.735L439.128 331.949C438.787 331.949 438.283 331.949 438.327 332.349C438.356 332.471 438.424 332.581 438.52 332.661C441.282 335.392 444.258 337.897 447.42 340.152C447.961 340.459 448.399 340.918 448.681 341.472C449.126 342.614 448.088 343.831 446.975 344.439C442.926 346.367 438.95 343.252 435.568 341.175Z" fill="#FFA8A7"/>
<path d="M349.014 177.485C357.914 179.562 366.057 181.624 370.211 188.121C374.364 194.618 376.99 200.67 380.595 213.605C384.199 226.54 393.099 261.622 393.099 261.622L423.894 315.276C423.894 315.276 419.785 341.027 384.778 339.692C369.721 308.541 358.388 282.271 355.303 272.94C352.218 263.61 341.686 218.352 341.686 218.352C341.686 218.352 335.782 197.021 349.014 177.485Z" fill="#455A64"/>
<path d="M308.488 293.708C314.94 216.943 327.95 199.617 332.459 189.085C334.448 184.143 336.122 179.079 337.473 173.925L338.096 170.573C338.096 170.573 361.993 178.895 368.52 183.745C375.047 188.596 378.132 198.579 380.683 206.841C378.221 213.086 368.817 217.373 363.165 220.592C345.157 230.842 327.92 236.108 308.488 293.708Z" fill="#37474F"/>
<path d="M256.125 282.048C251.452 348.919 242.552 477.646 242.552 477.646C242.552 477.646 216 469.413 209.74 454.965C219.708 367.446 233.874 277.183 262.192 195.553C262.192 195.508 258.038 249.281 256.125 282.048Z" fill="#455A64"/>
<path d="M308.354 165.277L307.672 168.926C307.672 168.926 282.024 185.051 272.234 210.639C262.281 236.583 256.125 282.122 256.125 282.122C253.191 259.906 252.169 237.48 253.069 215.089C254.033 188.878 255.457 182.455 257.786 172.368C259.644 163.7 262.398 155.249 266.004 147.15C266.004 147.15 277.322 154.419 285.288 159.017C292.296 163.088 300.25 165.247 308.354 165.277Z" fill="#37474F"/>
<path d="M244.955 317.293C244.936 317.049 244.901 316.806 244.851 316.566C244.733 316.077 244.584 315.602 244.421 315.083C244.19 314.438 243.897 313.817 243.546 313.229C243.705 313.166 243.855 313.081 243.991 312.977C244.263 312.761 244.439 312.446 244.48 312.101C244.491 311.82 244.408 311.543 244.243 311.315C244.077 311.058 243.847 310.848 243.576 310.707C243.946 307.918 244.332 305.115 244.703 302.311C244.896 300.828 245.089 299.344 245.267 297.861C245.567 296.347 245.486 294.782 245.029 293.307C244.911 293.01 244.184 292.536 244.11 293.114C243.427 298.84 242.626 304.551 241.884 310.277H241.706C241.457 310.348 241.225 310.472 241.028 310.641C240.831 310.81 240.672 311.02 240.564 311.256C240.445 311.526 240.409 311.825 240.46 312.116C240.519 312.357 240.642 312.578 240.816 312.754L240.579 313.229C240.367 313.666 240.198 314.123 240.075 314.593C239.864 315.488 239.705 316.395 239.6 317.308C239.6 317.427 239.719 317.619 239.793 317.441C240.045 316.774 240.357 316.121 240.653 315.469L240.475 316.744C240.355 317.432 240.271 318.125 240.223 318.821C240.223 319.503 240.223 320.215 240.223 320.898C240.223 321.031 240.416 321.18 240.46 320.987C240.594 320.527 240.698 320.052 240.802 319.592V320.705C240.802 320.883 241.009 321.105 241.098 320.838C241.306 320.215 241.514 319.592 241.692 318.955C241.692 318.717 241.795 318.48 241.84 318.242C241.84 318.895 241.751 319.563 241.736 320.215C241.713 320.989 241.758 321.763 241.87 322.529C241.87 322.707 242.137 322.9 242.226 322.663C242.349 322.239 242.448 321.808 242.522 321.372C242.6 321.005 242.654 320.634 242.686 320.26C242.76 319.548 242.789 318.777 242.819 318.094C242.845 318.21 242.879 318.324 242.923 318.435C242.923 318.539 243.16 318.688 243.279 318.569C243.431 318.323 243.517 318.042 243.531 317.753C243.576 317.458 243.576 317.158 243.531 316.863C243.531 316.27 243.531 315.676 243.531 315.083C243.531 314.935 243.531 314.786 243.531 314.638L243.768 315.305C243.887 315.721 243.991 316.136 244.095 316.566C244.135 316.763 244.19 316.956 244.258 317.145C244.306 317.408 244.391 317.662 244.51 317.901C244.51 318.035 244.881 318.168 244.955 317.901C245 317.701 245 317.493 244.955 317.293Z" fill="white"/>
<path d="M307.909 339.41C307.909 339.173 307.909 338.936 307.776 338.683C307.642 338.431 307.464 337.734 307.286 337.274C307.028 336.635 306.705 336.024 306.322 335.45C306.48 335.386 306.625 335.296 306.752 335.183C306.874 335.086 306.976 334.966 307.051 334.83C307.126 334.694 307.173 334.544 307.189 334.389C307.206 334.235 307.192 334.078 307.147 333.929C307.103 333.78 307.029 333.641 306.93 333.521C306.754 333.275 306.52 333.076 306.248 332.943C306.485 330.124 306.738 327.321 306.99 324.502C307.123 323.019 307.242 321.536 307.361 320.052C307.594 318.526 307.441 316.965 306.916 315.513C306.797 315.216 306.04 314.771 305.996 315.365C305.566 321.105 305.046 326.846 304.512 332.587H304.334C304.09 332.668 303.867 332.802 303.68 332.979C303.493 333.155 303.347 333.371 303.252 333.61C303.139 333.888 303.113 334.193 303.177 334.485C303.248 334.724 303.381 334.939 303.563 335.108C303.477 335.266 303.402 335.429 303.341 335.598C303.155 336.045 303.006 336.506 302.896 336.977C302.729 337.885 302.615 338.801 302.554 339.722C302.554 339.826 302.673 340.018 302.747 339.826C302.97 339.143 303.252 338.49 303.519 337.823C303.519 338.253 303.519 338.683 303.4 339.114C303.309 339.802 303.254 340.496 303.237 341.19C303.237 341.873 303.326 342.585 303.4 343.267C303.4 343.4 303.608 343.549 303.652 343.341C303.756 342.881 303.83 342.407 303.919 341.858C303.919 342.229 303.919 342.599 303.919 342.97C303.919 343.341 304.142 343.371 304.216 343.104C304.394 342.466 304.572 341.828 304.72 341.19C304.775 340.951 304.815 340.708 304.839 340.463C304.839 341.131 304.839 341.784 304.839 342.451C304.858 343.223 304.937 343.991 305.076 344.75C305.076 344.913 305.358 345.106 305.447 344.869C305.543 344.443 305.617 344.012 305.67 343.578C305.731 343.205 305.771 342.829 305.788 342.451C305.788 341.724 305.788 340.968 305.788 340.285C305.815 340.398 305.855 340.508 305.907 340.612C305.907 340.716 306.159 340.849 306.263 340.73C306.399 340.474 306.475 340.19 306.485 339.9C306.515 339.604 306.515 339.306 306.485 339.01L306.352 337.244V336.799L306.619 337.452C306.767 337.867 306.886 338.283 307.005 338.698C307.005 338.891 307.123 339.069 307.183 339.262C307.25 339.52 307.35 339.77 307.479 340.004C307.568 340.152 307.85 340.271 307.924 340.004C307.962 339.807 307.957 339.605 307.909 339.41Z" fill="white"/>
<path d="M340.395 158.394L357.439 178.005C357.439 178.005 347.678 176.773 338.615 196.71C329.552 216.646 322.773 263.462 319.539 302.801L306.381 317.842L296.354 300.353C296.354 300.353 304.112 228.321 315.83 199.617C321.242 186.247 329.242 174.077 339.372 163.809L340.395 158.394Z" fill="#AC69DB"/>
<path opacity="0.6" d="M340.395 158.394L357.439 178.005C357.439 178.005 347.678 176.773 338.615 196.71C329.552 216.646 322.773 263.462 319.539 302.801L306.381 317.842L296.354 300.353C296.354 300.353 304.112 228.321 315.83 199.617C321.242 186.247 329.242 174.077 339.372 163.809L340.395 158.394Z" fill="white"/>
<path d="M353.953 173.97C349.792 175.933 346.095 178.76 343.11 182.262C331.436 195.301 327.267 214.466 322.654 240.113C318.115 265.331 315.519 296.704 315.237 299.715L307.464 308.957L301.531 299.062C302.035 295.176 308.251 247.812 312.552 226.229C315.842 208.271 323.272 191.328 334.254 176.744C336.034 174.355 337.488 172.457 338.704 170.899C341.938 166.701 343.347 164.877 343.777 162.325L342.487 160.842C342.383 163.809 341.27 165.188 337.562 170.009C336.346 171.493 334.877 173.48 333.112 175.943C321.997 190.696 314.476 207.838 311.143 226.006C306.693 248.45 300.151 298.692 300.092 299.181V299.433L307.346 311.508L316.721 300.353V300.131C316.721 299.789 319.376 266.74 324.138 240.44C328.706 215.015 332.83 196.028 344.252 183.271C347.198 179.806 350.89 177.052 355.051 175.216L353.953 173.97Z" fill="white"/>
<path d="M301.412 157.386L294.203 160.753C294.203 160.753 276.907 166.301 260.59 194.871C241.113 228.988 236.693 276.604 236.693 276.604L244.332 296.467L259.492 282.078C259.492 282.078 266.256 234.18 274.711 209.482C283.167 184.784 307.657 168.897 307.657 168.897L309.274 160.323L309.437 159.477C306.687 159.107 303.993 158.405 301.412 157.386Z" fill="#AC69DB"/>
<path opacity="0.6" d="M301.412 157.386L294.203 160.753C294.203 160.753 276.907 166.301 260.59 194.871C241.113 228.988 236.693 276.604 236.693 276.604L244.332 296.467L259.492 282.078C259.492 282.078 266.256 234.18 274.711 209.482C283.167 184.784 307.657 168.897 307.657 168.897L309.274 160.323L309.437 159.477C306.687 159.107 303.993 158.405 301.412 157.386Z" fill="white"/>
<path d="M308.117 166.553L308.458 164.773C295.226 171.151 278.182 187.023 268.748 214.095C260.056 238.986 255.873 274.32 255.487 277.746L246.587 286.142L242.077 273.83C245.726 249.666 250.518 224.419 260.634 203.385C269.668 184.635 287.053 164.565 306.826 159.017C305.936 158.825 305.061 158.587 304.171 158.32C284.887 164.832 268.155 184.413 259.329 202.821C249.094 224.063 244.287 249.518 240.609 273.86V274.053L246.142 288.768L256.911 278.429V278.162C256.911 277.791 261.094 240.469 270.128 214.57C279.161 188.67 295.315 173.08 308.117 166.553Z" fill="white"/>
<path d="M188.172 305.485C188.172 309.936 188.276 314.148 194.669 315.142C187.92 315.053 188.439 319.311 188.098 324.636C187.92 319.311 187.46 315.483 182.164 315.231C187.638 314.341 187.489 311.819 188.172 305.485Z" fill="#455A64"/>
<path d="M159.646 173.154C159.557 181.935 159.869 190.376 172.537 192.334C159.186 192.156 160.165 200.596 159.513 211.158C159.157 200.596 158.222 193.016 147.794 192.512C158.578 190.732 158.296 185.733 159.646 173.154Z" fill="#455A64"/>
<path d="M155.256 322.841C155.152 331.741 155.478 340.152 168.22 342.125C154.751 341.947 155.775 350.432 155.107 361.053C154.751 350.432 153.817 342.807 143.329 342.303C154.173 340.523 153.891 335.494 155.256 322.841Z" fill="#AC69DB"/>
<path d="M470.887 206.189C470.813 212.597 471.051 218.768 480.307 220.206C470.531 220.073 471.258 226.229 470.784 233.957C470.531 226.229 469.849 220.696 462.225 220.325C470.101 218.975 469.894 215.311 470.887 206.189Z" fill="#455A64"/>
<path d="M421.298 168.6C421.209 177.263 421.521 185.599 434.026 187.543C420.809 187.365 421.803 195.701 421.165 206.129C420.809 195.746 419.889 188.21 409.594 187.721C420.245 185.955 419.963 180.971 421.298 168.6Z" fill="#AC69DB"/>
<path d="M415.068 356.721C415.439 365.963 416.092 370.517 424.814 371.229C416.092 371.659 415.513 376.346 415.068 385.335C414.742 376.435 414.43 371.822 406.168 371.229C414.43 370.517 414.534 365.814 415.068 356.721Z" fill="#AC69DB"/>
<path d="M128.777 214.125C128.703 220.622 128.941 227.668 138.33 229.122C128.407 228.988 129.163 234.462 128.674 242.279C128.407 234.462 127.724 228.84 119.996 228.469C127.976 227.149 127.769 223.44 128.777 214.125Z" fill="#EBEBEB"/>
<path d="M427.499 232.667C427.899 241.359 427.899 245.157 436.325 245.795C427.899 246.18 427.944 251.357 427.499 258.552C427.261 251.357 426.92 246.462 419.474 245.795C426.801 245.32 427.039 241.448 427.499 232.667Z" fill="#EBEBEB"/>
<path d="M549.565 375.827L548.082 371.154C547.281 367.401 562.649 376.272 563.45 380.055L558.495 393.405C558.323 393.803 558.033 394.14 557.665 394.369C556.582 395.037 552.577 397.336 552.221 397.514C551.943 397.682 551.632 397.785 551.309 397.816C550.987 397.846 550.662 397.804 550.358 397.691C550.054 397.578 549.779 397.399 549.555 397.165C549.33 396.931 549.162 396.65 549.061 396.342L542.653 374.344C542.238 372.445 545.783 373.661 549.565 375.827Z" fill="#AC69DB"/>
<path opacity="0.2" d="M549.565 375.827L548.082 371.154C547.281 367.401 562.649 376.272 563.45 380.055L558.495 393.405C558.323 393.803 558.033 394.14 557.665 394.369C556.582 395.037 552.577 397.336 552.221 397.514C551.943 397.682 551.632 397.785 551.309 397.816C550.987 397.846 550.662 397.804 550.358 397.691C550.054 397.578 549.779 397.399 549.555 397.165C549.33 396.931 549.162 396.65 549.061 396.342L542.653 374.344C542.238 372.445 545.783 373.661 549.565 375.827Z" fill="white"/>
<path d="M528.68 286.291L587.095 319.993C587.668 320.367 588.146 320.87 588.489 321.463C588.831 322.056 589.03 322.721 589.068 323.405V392.619C589.032 393.303 588.832 393.968 588.487 394.559C588.141 395.15 587.658 395.649 587.08 396.016L583.475 398.063C582.86 398.368 582.182 398.528 581.495 398.528C580.808 398.528 580.13 398.368 579.515 398.063L521.1 364.301C520.522 363.931 520.04 363.428 519.694 362.835C519.349 362.242 519.149 361.575 519.112 360.889V291.675C519.149 290.99 519.349 290.323 519.694 289.73C520.04 289.137 520.522 288.634 521.1 288.264L524.719 286.231C525.339 285.935 526.019 285.786 526.706 285.796C527.393 285.806 528.069 285.976 528.68 286.291Z" fill="#AC69DB"/>
<path opacity="0.2" d="M528.68 286.291L587.095 319.993C587.668 320.367 588.146 320.87 588.489 321.463C588.831 322.056 589.03 322.721 589.068 323.405V392.619C589.032 393.303 588.832 393.968 588.487 394.559C588.141 395.15 587.658 395.649 587.08 396.016L583.475 398.063C582.86 398.368 582.182 398.528 581.495 398.528C580.808 398.528 580.13 398.368 579.515 398.063L521.1 364.301C520.522 363.931 520.04 363.428 519.694 362.835C519.349 362.242 519.149 361.575 519.112 360.889V291.675C519.149 290.99 519.349 290.323 519.694 289.73C520.04 289.137 520.522 288.634 521.1 288.264L524.719 286.231C525.339 285.935 526.019 285.786 526.706 285.796C527.393 285.806 528.069 285.976 528.68 286.291Z" fill="white"/>
<path d="M521.1 290.533L579.515 324.22C580.085 324.601 580.56 325.108 580.903 325.703C581.245 326.297 581.445 326.962 581.488 327.647V396.861C581.488 398.122 580.598 398.626 579.515 398.003L557.16 385.113L553.051 396.49C552.875 396.886 552.583 397.22 552.214 397.447C551.845 397.675 551.416 397.785 550.983 397.764C550.55 397.743 550.133 397.592 549.788 397.33C549.442 397.069 549.184 396.709 549.046 396.297L543.588 377.281L521.1 364.301C520.524 363.93 520.044 363.427 519.701 362.834C519.358 362.24 519.161 361.574 519.127 360.889V291.675C519.127 290.414 520.002 289.895 521.1 290.533Z" fill="#AC69DB"/>
<path opacity="0.4" d="M521.1 290.533L579.515 324.22C580.085 324.601 580.56 325.108 580.903 325.703C581.245 326.297 581.445 326.962 581.488 327.647V396.861C581.488 398.122 580.598 398.626 579.515 398.003L557.16 385.113L553.051 396.49C552.875 396.886 552.583 397.22 552.214 397.447C551.845 397.675 551.416 397.785 550.983 397.764C550.55 397.743 550.133 397.592 549.788 397.33C549.442 397.069 549.184 396.709 549.046 396.297L543.588 377.281L521.1 364.301C520.524 363.93 520.044 363.427 519.701 362.834C519.358 362.24 519.161 361.574 519.127 360.889V291.675C519.127 290.414 520.002 289.895 521.1 290.533Z" fill="white"/>
<path opacity="0.7" d="M519.142 291.304C519.305 290.311 520.106 289.955 521.1 290.533L579.5 324.22C580.083 324.589 580.562 325.099 580.894 325.704L588.445 321.343C588.114 320.771 587.651 320.288 587.095 319.933L528.68 286.291C528.064 285.985 527.387 285.826 526.699 285.826C526.012 285.826 525.334 285.985 524.719 286.291L521.1 288.338C520.587 288.671 520.148 289.107 519.812 289.617C519.475 290.127 519.247 290.702 519.142 291.304Z" fill="white"/>
<path d="M548.215 318.598L544.285 332.453L531.572 325.036C530.014 324.146 529.362 326.431 530.623 328.374L540.917 344.276L536.986 358.13C536.497 359.821 538.203 362.447 539.464 361.957L549.743 357.923L560.023 373.839C561.284 375.782 562.99 375.115 562.5 372.86L558.569 354.526L568.864 350.506C570.125 350.016 569.472 346.99 567.915 346.056L555.202 338.713L551.271 320.408C550.797 318.124 548.69 316.907 548.215 318.598Z" fill="white"/>
<path d="M66.3128 375.827L67.7962 371.154C68.5972 367.401 53.2295 376.272 52.4285 380.055L57.3829 393.405C57.5512 393.806 57.842 394.143 58.2136 394.369C59.2965 395.037 63.3016 397.336 63.6428 397.514C63.9203 397.685 64.2331 397.79 64.5574 397.822C64.8817 397.855 65.2092 397.813 65.5149 397.7C65.8207 397.587 66.0968 397.406 66.3224 397.171C66.548 396.936 66.7172 396.652 66.8172 396.342L73.2253 374.344C73.6407 372.445 70.0954 373.661 66.3128 375.827Z" fill="#AC69DB"/>
<path opacity="0.2" d="M66.3128 375.827L67.7962 371.154C68.5972 367.401 53.2295 376.272 52.4285 380.055L57.3829 393.405C57.5512 393.806 57.842 394.143 58.2136 394.369C59.2965 395.037 63.3016 397.336 63.6428 397.514C63.9203 397.685 64.2331 397.79 64.5574 397.822C64.8817 397.855 65.2092 397.813 65.5149 397.7C65.8207 397.587 66.0968 397.406 66.3224 397.171C66.548 396.936 66.7172 396.652 66.8172 396.342L73.2253 374.344C73.6407 372.445 70.0954 373.661 66.3128 375.827Z" fill="white"/>
<path d="M87.1986 286.291L28.7834 319.948C28.2098 320.322 27.7324 320.826 27.3896 321.419C27.0469 322.011 26.8485 322.677 26.8105 323.36V392.574C26.8465 393.258 27.0457 393.923 27.3915 394.514C27.7374 395.105 28.2197 395.605 28.7983 395.971L32.4029 398.018C33.0182 398.324 33.696 398.483 34.3832 398.483C35.0703 398.483 35.7481 398.324 36.3635 398.018L94.7786 364.316C95.3547 363.945 95.8341 363.442 96.1772 362.848C96.5202 362.255 96.7171 361.589 96.7515 360.904V291.675C96.7136 290.992 96.5152 290.327 96.1724 289.734C95.8297 289.141 95.3522 288.637 94.7786 288.264L91.1592 286.291C90.5438 285.985 89.866 285.826 89.1789 285.826C88.4918 285.826 87.8139 285.985 87.1986 286.291Z" fill="#AC69DB"/>
<path opacity="0.2" d="M87.1986 286.291L28.7834 319.948C28.2098 320.322 27.7324 320.826 27.3896 321.419C27.0469 322.011 26.8485 322.677 26.8105 323.36V392.574C26.8465 393.258 27.0457 393.923 27.3915 394.514C27.7374 395.105 28.2197 395.605 28.7983 395.971L32.4029 398.018C33.0182 398.324 33.696 398.483 34.3832 398.483C35.0703 398.483 35.7481 398.324 36.3635 398.018L94.7786 364.316C95.3547 363.945 95.8341 363.442 96.1772 362.848C96.5202 362.255 96.7171 361.589 96.7515 360.904V291.675C96.7136 290.992 96.5152 290.327 96.1724 289.734C95.8297 289.141 95.3522 288.637 94.7786 288.264L91.1592 286.291C90.5438 285.985 89.866 285.826 89.1789 285.826C88.4918 285.826 87.8139 285.985 87.1986 286.291Z" fill="white"/>
<path d="M94.7787 290.533L36.3636 324.221C35.7956 324.603 35.3235 325.111 34.9839 325.705C34.6443 326.299 34.4464 326.964 34.4055 327.647V396.861C34.4055 398.122 35.2955 398.626 36.3784 398.003L58.7328 385.113L62.8417 396.49C63.018 396.886 63.3098 397.22 63.6789 397.447C64.0481 397.675 64.4773 397.785 64.9103 397.764C65.3433 397.743 65.7599 397.592 66.1055 397.33C66.451 397.069 66.7095 396.709 66.8469 396.298L72.3057 377.281L94.7936 364.301C95.3696 363.93 95.849 363.427 96.1921 362.834C96.5352 362.24 96.7321 361.574 96.7665 360.889V291.675C96.7071 290.414 95.8764 289.895 94.7787 290.533Z" fill="#AC69DB"/>
<path opacity="0.4" d="M94.7787 290.533L36.3636 324.221C35.7956 324.603 35.3235 325.111 34.9839 325.705C34.6443 326.299 34.4464 326.964 34.4055 327.647V396.861C34.4055 398.122 35.2955 398.626 36.3784 398.003L58.7328 385.113L62.8417 396.49C63.018 396.886 63.3098 397.22 63.6789 397.447C64.0481 397.675 64.4773 397.785 64.9103 397.764C65.3433 397.743 65.7599 397.592 66.1055 397.33C66.451 397.069 66.7095 396.709 66.8469 396.298L72.3057 377.281L94.7936 364.301C95.3696 363.93 95.849 363.427 96.1921 362.834C96.5352 362.24 96.7321 361.574 96.7665 360.889V291.675C96.7071 290.414 95.8764 289.895 94.7787 290.533Z" fill="white"/>
<path opacity="0.7" d="M96.707 291.305C96.5439 290.311 95.728 289.955 94.749 290.533L36.3783 324.221C35.7922 324.585 35.3116 325.096 34.984 325.704L27.4336 321.343C27.7639 320.771 28.2269 320.288 28.7835 319.934L87.1986 286.291C87.814 285.985 88.4918 285.826 89.1789 285.826C89.8661 285.826 90.5439 285.985 91.1592 286.291L94.7638 288.338C95.2738 288.673 95.7094 289.109 96.0437 289.619C96.378 290.13 96.6038 290.703 96.707 291.305Z" fill="white"/>
<path d="M60.4683 328.196C60.9133 327.944 61.2544 327.899 61.477 328.092C61.7662 328.393 61.9665 328.767 62.0555 329.175L72.3352 358.561C72.3517 358.684 72.3517 358.808 72.3352 358.931C72.331 359.372 72.2189 359.805 72.0089 360.192C71.836 360.566 71.5575 360.88 71.2079 361.097L68.2411 362.847C67.6774 363.159 67.2918 363.233 67.0544 363.04C66.8499 362.864 66.692 362.64 66.5946 362.388L64.7997 357.226L51.5384 364.909L49.7287 372.163C49.63 372.578 49.4753 372.977 49.2688 373.35C49.0014 373.843 48.5935 374.246 48.0969 374.507L45.1302 376.242C45.0129 376.325 44.873 376.369 44.7297 376.369C44.5864 376.369 44.4465 376.325 44.3292 376.242C44.2092 376.133 44.1171 375.996 44.0604 375.844C44.0036 375.692 43.9839 375.528 44.0028 375.367C43.995 375.229 43.995 375.09 44.0028 374.952L54.2826 333.699C54.4053 333.095 54.5995 332.507 54.8611 331.949C55.0868 331.503 55.4372 331.132 55.8698 330.881L60.4683 328.196ZM62.7675 351.396L58.1394 338.209L53.5409 356.795L62.7675 351.396Z" fill="white"/>
<path d="M79.8707 333.328V340.864C79.8619 341.186 79.7754 341.502 79.6185 341.784C79.4965 342.067 79.2891 342.306 79.0251 342.466L76.6666 343.831C76.5826 343.892 76.4813 343.925 76.3773 343.925C76.2733 343.925 76.172 343.892 76.088 343.831C75.9987 343.752 75.9293 343.653 75.8855 343.542C75.8417 343.431 75.8247 343.312 75.8359 343.193V335.657L70.2881 338.861C70.2028 338.926 70.0986 338.962 69.9914 338.962C69.8842 338.962 69.78 338.926 69.6947 338.861C69.6054 338.782 69.536 338.684 69.4922 338.573C69.4484 338.462 69.4314 338.342 69.4425 338.224V335.494C69.4513 335.167 69.5377 334.847 69.6947 334.56C69.8192 334.281 70.0264 334.048 70.2881 333.892L75.8359 330.688V323.197C75.8446 322.875 75.9312 322.559 76.088 322.277C76.2115 321.999 76.4123 321.762 76.6666 321.595L79.0251 320.245C79.1122 320.184 79.2157 320.152 79.3218 320.152C79.4279 320.152 79.5314 320.184 79.6185 320.245C79.7078 320.324 79.7772 320.423 79.821 320.534C79.8648 320.645 79.8818 320.764 79.8707 320.883V328.374L85.3888 325.185C85.4759 325.124 85.5794 325.092 85.6855 325.092C85.7915 325.092 85.8951 325.124 85.9821 325.185C86.069 325.268 86.1356 325.37 86.1768 325.483C86.2179 325.597 86.2325 325.718 86.2195 325.837V328.567C86.2164 328.888 86.135 329.204 85.9821 329.486C85.8533 329.766 85.6474 330.002 85.3888 330.169L79.8707 333.328Z" fill="white"/>
</svg>
